<svg width="67" height="67" xmlns="http://www.w3.org/2000/svg"><defs><linearGradient id="a" gradientUnits="userSpaceOnUse" x1="33.54" y1="66.15" x2="33.65" y2="-.05"><stop stop-color="#f39e1d" offset="0"/><stop stop-color="#fed05c" offset="1"/></linearGradient></defs><path d="M1.35 25.31l8.93-15.47-1.6-2.82a3.1 3.1 0 1 1 1.63-1.18l1.7 3h12.75a4.66 4.66 0 1 1 7.68 4.43l6.37 11.04h16.7l4.06-7.23a4.17 4.17 0 1 1 1.76.95l-4.1 7.27 8.94 15.48-6.95 12.04a4.64 4.64 0 1 1-7.67 4.43H38.78l-1.8 2.9a3.1 3.1 0 1 1-1.7-1.06l1.78-2.86-8.34-14.45h-16.7l-4.4 7.72a4.17 4.17 0 1 1-1.75-.95l4.41-7.76zm62.51 15.47l-8.35-14.47h-16.7L30.45 40.8l8.35 14.46h12.75a4.66 4.66 0 0 1 5.94-3.43zM12.01 10.84L3.66 25.31l8.35 14.47h16.7l8.36-14.48-6.37-11.03a4.63 4.63 0 0 1-5.94-3.43zm14.84 25.7H13.89a1 1 0 0 1 0-2h12.96a1 1 0 0 1 0 2zm26.79-4.98H40.67a1 1 0 0 1 0-2h12.97a1 1 0 0 1 0 2zm8.72-19.76a2.18 2.18 0 1 0 0 4.36 2.18 2.18 0 0 0 0-4.36zM4.83 50.42a2.18 2.18 0 1 0 0 4.36 2.18 2.18 0 0 0 0-4.36zM38.19 9.84a1 1 0 0 1-1-1c0-3.8-3.09-6.9-6.89-6.9a1 1 0 1 1 0-2 8.9 8.9 0 0 1 8.9 8.9 1 1 0 0 1-1 1zM29.3 7.2a2.65 2.65 0 1 0 0 5.3 2.65 2.65 0 0 0 0-5.3zM57.1 66.15a1 1 0 1 1 0-2c3.8 0 6.9-3.1 6.9-6.9a1 1 0 0 1 2 0 8.9 8.9 0 0 1-8.9 8.9zm-1-12.55a2.65 2.65 0 1 0 0 5.3 2.65 2.65 0 0 0 0-5.3zm-21.51 7.42a1.1 1.1 0 1 0 0 2.2 1.1 1.1 0 0 0 0-2.2zM7.78 2.95a1.1 1.1 0 0 0-1.04.72 1.1 1.1 0 0 0 .66 1.41 1.1 1.1 0 1 0 .38-2.13z" fill="#f8d138"/><path d="M1.35 25.31l8.93-15.47-1.6-2.82a3.1 3.1 0 1 1 1.63-1.18l1.7 3h12.75a4.66 4.66 0 1 1 7.68 4.43l6.37 11.04h16.7l4.06-7.23a4.17 4.17 0 1 1 1.76.95l-4.1 7.27 8.94 15.48-6.95 12.04a4.64 4.64 0 1 1-7.67 4.43H38.78l-1.8 2.9a3.1 3.1 0 1 1-1.7-1.06l1.78-2.86-8.34-14.45h-16.7l-4.4 7.72a4.17 4.17 0 1 1-1.75-.95l4.41-7.76zm62.51 15.47l-8.35-14.47h-16.7L30.45 40.8l8.35 14.46h12.75a4.66 4.66 0 0 1 5.94-3.43zM12.01 10.84L3.66 25.31l8.35 14.47h16.7l8.36-14.48-6.37-11.03a4.63 4.63 0 0 1-5.94-3.43zm14.84 25.7H13.89a1 1 0 0 1 0-2h12.96a1 1 0 0 1 0 2zm26.79-4.98H40.67a1 1 0 0 1 0-2h12.97a1 1 0 0 1 0 2zm8.72-19.76a2.18 2.18 0 1 0 0 4.36 2.18 2.18 0 0 0 0-4.36zM4.83 50.42a2.18 2.18 0 1 0 0 4.36 2.18 2.18 0 0 0 0-4.36zM38.19 9.84a1 1 0 0 1-1-1c0-3.8-3.09-6.9-6.89-6.9a1 1 0 1 1 0-2 8.9 8.9 0 0 1 8.9 8.9 1 1 0 0 1-1 1zM29.3 7.2a2.65 2.65 0 1 0 0 5.3 2.65 2.65 0 0 0 0-5.3zM57.1 66.15a1 1 0 1 1 0-2c3.8 0 6.9-3.1 6.9-6.9a1 1 0 0 1 2 0 8.9 8.9 0 0 1-8.9 8.9zm-1-12.55a2.65 2.65 0 1 0 0 5.3 2.65 2.65 0 0 0 0-5.3zm-21.51 7.42a1.1 1.1 0 1 0 0 2.2 1.1 1.1 0 0 0 0-2.2zM7.78 2.95a1.1 1.1 0 0 0-1.04.72 1.1 1.1 0 0 0 .66 1.41 1.1 1.1 0 1 0 .38-2.13z" fill="url(#a)"/></svg>