<svg width="72" height="65" xmlns="http://www.w3.org/2000/svg"><defs><linearGradient id="a" gradientUnits="userSpaceOnUse" x1="35.94" y1="64.79" x2="36.15" y2=".55"><stop stop-color="#f39e1d" offset="0"/><stop stop-color="#fed05c" offset="1"/></linearGradient></defs><path d="M29.94 54.04l-7.69 2.76a1.8 1.8 0 0 0-1.06 2.38l1.34 3.34 9.1-3.31a1 1 0 0 1 .7 1.87L22.3 64.73a1 1 0 0 1-1.27-.57l-1.7-4.24a3.77 3.77 0 0 1 .92-4.18 6.57 6.57 0 0 0-4.08-2.72l-.7-.16a14.18 14.18 0 0 1-8.71-6.75c-2.42-4.2-6-8.51-6.04-8.56l-.57-.68.61-.65a5.1 5.1 0 0 1 2.79-1.34l-1.3-5.95 4.8-14.71.9.22c.28.07.6.22.94.44l.97-3 .97.36a4.93 4.93 0 0 1 3.01 4.08 6 6 0 0 1 2.17 5.58 5.44 5.44 0 0 1 2.04 5l-.09.66 1.4 4.96a5.76 5.76 0 0 0 3.13 3.66l3.02 1.4A14.83 14.83 0 0 1 33.55 47c.83 2.91-.76 6-3.61 7.03zm1.69-6.49a12.84 12.84 0 0 0-6.96-8.16L21.65 38a7.75 7.75 0 0 1-4.2-4.92l-1.47-5.16a1 1 0 0 1-.03-.4l.12-.88c.1-.81-.08-1.62-.5-2.28l-.6 3.17 1.45 5.05a1 1 0 1 1-1.92.55l-1.58-5.5 1.01-5.42.1-.5c.16-.9 0-1.81-.41-2.6l-1.77 9.2 1.4 4.96a1 1 0 0 1-1.92.54L9.8 28.4l1.9-9.88c.5-2.02-.07-3.16-.66-3.78l-.67 2.07c.3.84.43 1.91.2 3.29v.05l-1.96 8.6 1.31 5.35a1 1 0 1 1-1.94.48l-1.43-5.81 2.06-9.03c.23-1.42-.04-2.26-.37-2.73L4.32 29.04l1.31 6c1.52.44 3.01 1.56 4.43 3.39A9.44 9.44 0 0 0 18.8 42a1 1 0 1 1 .27 1.98l-.68.08a11.3 11.3 0 0 1-9.9-4.41c-1.39-1.79-2.82-2.77-4.13-2.83a2.94 2.94 0 0 0-1.41.29 70 70 0 0 1 5.55 7.99 12.17 12.17 0 0 0 8.08 5.95 8.56 8.56 0 0 1 5.44 3.7l7.25-2.6a3.81 3.81 0 0 0 2.37-4.61zm40.31-10.68l-.57.68c-.04.05-3.62 4.37-6.04 8.56a14.17 14.17 0 0 1-9.4 6.9 6.57 6.57 0 0 0-4.1 2.73 3.8 3.8 0 0 1 .93 4.18l-1.7 4.24a1 1 0 0 1-1.27.57l-10.02-3.65a1 1 0 0 1 .68-1.87l9.11 3.31 1.34-3.34a1.8 1.8 0 0 0-1.06-2.38l-7.69-2.76A5.82 5.82 0 0 1 38.54 47a14.83 14.83 0 0 1 8.04-9.43l3.02-1.4a5.76 5.76 0 0 0 3.12-3.66l1.4-4.96-.08-.67a5.44 5.44 0 0 1 2.04-4.99 6 6 0 0 1 2.17-5.58 4.93 4.93 0 0 1 3-4.08l.98-.36.97 3c.33-.22.66-.37.94-.44l.9-.22 4.8 14.71-1.3 5.95a5.1 5.1 0 0 1 2.79 1.34zm-4.23-.04c-1.3.08-2.72 1.05-4.1 2.83a11.3 11.3 0 0 1-10.58 4.33 1 1 0 1 1 .27-1.98l.58.07a9.42 9.42 0 0 0 8.15-3.65c1.42-1.83 2.9-2.95 4.43-3.39l1.31-6L63.85 17c-.34.48-.6 1.3-.36 2.73l2.05 9.03-1.43 5.8a1 1 0 1 1-1.94-.47l1.31-5.35-1.96-8.65a6.3 6.3 0 0 1 .2-3.29l-.67-2.06c-.59.61-1.16 1.76-.66 3.77l.02.06 1.88 9.82-1.53 5.41a1 1 0 1 1-1.93-.54l1.4-4.96-1.76-9.2c-.41.8-.57 1.7-.4 2.6l1.1 5.92-1.58 5.5a1 1 0 0 1-1.92-.55l1.45-5.05-.6-3.17a3.44 3.44 0 0 0-.5 2.28l.12.87a1 1 0 0 1-.03.4l-1.46 5.17a7.75 7.75 0 0 1-4.2 4.92l-3.03 1.4a12.84 12.84 0 0 0-6.96 8.16 3.81 3.81 0 0 0 2.37 4.6l7.25 2.62a8.56 8.56 0 0 1 5.44-3.71l.61-.14a12.17 12.17 0 0 0 7.47-5.81 69.97 69.97 0 0 1 5.55-8 2.91 2.91 0 0 0-1.44-.28zM36.05 32.1l-.92-2.08c-1.01-2.3-5.23-6.02-6.77-7.25a56.85 56.85 0 0 1-5.82-5.61 12.46 12.46 0 0 1-2.36-4.17A9.26 9.26 0 0 1 28.26.57c4.06-.27 6.56 2.31 7.79 4.09C37.27 2.88 39.77.3 43.84.57a9.26 9.26 0 0 1 8.08 12.42 11.88 11.88 0 0 1-2.37 4.17 56.82 56.82 0 0 1-5.8 5.6c-1.56 1.25-5.77 4.95-6.79 7.26zM28.8 2.55c-.14 0-.28 0-.43.02a7.25 7.25 0 0 0-6.3 9.8 9.88 9.88 0 0 0 1.98 3.49 55.02 55.02 0 0 0 5.57 5.37c.19.15 4.3 3.46 6.42 6.43 2.11-2.97 6.23-6.29 6.43-6.45a54.92 54.92 0 0 0 5.55-5.35 10.47 10.47 0 0 0 1.98-3.48 7.25 7.25 0 0 0-6.3-9.81c-4.58-.3-6.66 4.28-6.75 4.48l-.92 2.1-.91-2.1c-.08-.2-2.03-4.5-6.32-4.5z" fill="#f8d138"/><path d="M29.94 54.04l-7.69 2.76a1.8 1.8 0 0 0-1.06 2.38l1.34 3.34 9.1-3.31a1 1 0 0 1 .7 1.87L22.3 64.73a1 1 0 0 1-1.27-.57l-1.7-4.24a3.77 3.77 0 0 1 .92-4.18 6.57 6.57 0 0 0-4.08-2.72l-.7-.16a14.18 14.18 0 0 1-8.71-6.75c-2.42-4.2-6-8.51-6.04-8.56l-.57-.68.61-.65a5.1 5.1 0 0 1 2.79-1.34l-1.3-5.95 4.8-14.71.9.22c.28.07.6.22.94.44l.97-3 .97.36a4.93 4.93 0 0 1 3.01 4.08 6 6 0 0 1 2.17 5.58 5.44 5.44 0 0 1 2.04 5l-.09.66 1.4 4.96a5.76 5.76 0 0 0 3.13 3.66l3.02 1.4A14.83 14.83 0 0 1 33.55 47c.83 2.91-.76 6-3.61 7.03zm1.69-6.49a12.84 12.84 0 0 0-6.96-8.16L21.65 38a7.75 7.75 0 0 1-4.2-4.92l-1.47-5.16a1 1 0 0 1-.03-.4l.12-.88c.1-.81-.08-1.62-.5-2.28l-.6 3.17 1.45 5.05a1 1 0 1 1-1.92.55l-1.58-5.5 1.01-5.42.1-.5c.16-.9 0-1.81-.41-2.6l-1.77 9.2 1.4 4.96a1 1 0 0 1-1.92.54L9.8 28.4l1.9-9.88c.5-2.02-.07-3.16-.66-3.78l-.67 2.07c.3.84.43 1.91.2 3.29v.05l-1.96 8.6 1.31 5.35a1 1 0 1 1-1.94.48l-1.43-5.81 2.06-9.03c.23-1.42-.04-2.26-.37-2.73L4.32 29.04l1.31 6c1.52.44 3.01 1.56 4.43 3.39A9.44 9.44 0 0 0 18.8 42a1 1 0 1 1 .27 1.98l-.68.08a11.3 11.3 0 0 1-9.9-4.41c-1.39-1.79-2.82-2.77-4.13-2.83a2.94 2.94 0 0 0-1.41.29 70 70 0 0 1 5.55 7.99 12.17 12.17 0 0 0 8.08 5.95 8.56 8.56 0 0 1 5.44 3.7l7.25-2.6a3.81 3.81 0 0 0 2.37-4.61zm40.31-10.68l-.57.68c-.04.05-3.62 4.37-6.04 8.56a14.17 14.17 0 0 1-9.4 6.9 6.57 6.57 0 0 0-4.1 2.73 3.8 3.8 0 0 1 .93 4.18l-1.7 4.24a1 1 0 0 1-1.27.57l-10.02-3.65a1 1 0 0 1 .68-1.87l9.11 3.31 1.34-3.34a1.8 1.8 0 0 0-1.06-2.38l-7.69-2.76A5.82 5.82 0 0 1 38.54 47a14.83 14.83 0 0 1 8.04-9.43l3.02-1.4a5.76 5.76 0 0 0 3.12-3.66l1.4-4.96-.08-.67a5.44 5.44 0 0 1 2.04-4.99 6 6 0 0 1 2.17-5.58 4.93 4.93 0 0 1 3-4.08l.98-.36.97 3c.33-.22.66-.37.94-.44l.9-.22 4.8 14.71-1.3 5.95a5.1 5.1 0 0 1 2.79 1.34zm-4.23-.04c-1.3.08-2.72 1.05-4.1 2.83a11.3 11.3 0 0 1-10.58 4.33 1 1 0 1 1 .27-1.98l.58.07a9.42 9.42 0 0 0 8.15-3.65c1.42-1.83 2.9-2.95 4.43-3.39l1.31-6L63.85 17c-.34.48-.6 1.3-.36 2.73l2.05 9.03-1.43 5.8a1 1 0 1 1-1.94-.47l1.31-5.35-1.96-8.65a6.3 6.3 0 0 1 .2-3.29l-.67-2.06c-.59.61-1.16 1.76-.66 3.77l.02.06 1.88 9.82-1.53 5.41a1 1 0 1 1-1.93-.54l1.4-4.96-1.76-9.2c-.41.8-.57 1.7-.4 2.6l1.1 5.92-1.58 5.5a1 1 0 0 1-1.92-.55l1.45-5.05-.6-3.17a3.44 3.44 0 0 0-.5 2.28l.12.87a1 1 0 0 1-.03.4l-1.46 5.17a7.75 7.75 0 0 1-4.2 4.92l-3.03 1.4a12.84 12.84 0 0 0-6.96 8.16 3.81 3.81 0 0 0 2.37 4.6l7.25 2.62a8.56 8.56 0 0 1 5.44-3.71l.61-.14a12.17 12.17 0 0 0 7.47-5.81 69.97 69.97 0 0 1 5.55-8 2.91 2.91 0 0 0-1.44-.28zM36.05 32.1l-.92-2.08c-1.01-2.3-5.23-6.02-6.77-7.25a56.85 56.85 0 0 1-5.82-5.61 12.46 12.46 0 0 1-2.36-4.17A9.26 9.26 0 0 1 28.26.57c4.06-.27 6.56 2.31 7.79 4.09C37.27 2.88 39.77.3 43.84.57a9.26 9.26 0 0 1 8.08 12.42 11.88 11.88 0 0 1-2.37 4.17 56.82 56.82 0 0 1-5.8 5.6c-1.56 1.25-5.77 4.95-6.79 7.26zM28.8 2.55c-.14 0-.28 0-.43.02a7.25 7.25 0 0 0-6.3 9.8 9.88 9.88 0 0 0 1.98 3.49 55.02 55.02 0 0 0 5.57 5.37c.19.15 4.3 3.46 6.42 6.43 2.11-2.97 6.23-6.29 6.43-6.45a54.92 54.92 0 0 0 5.55-5.35 10.47 10.47 0 0 0 1.98-3.48 7.25 7.25 0 0 0-6.3-9.81c-4.58-.3-6.66 4.28-6.75 4.48l-.92 2.1-.91-2.1c-.08-.2-2.03-4.5-6.32-4.5z" fill="url(#a)"/></svg>