<svg width="62" height="62" xmlns="http://www.w3.org/2000/svg"><defs><linearGradient id="a" gradientUnits="userSpaceOnUse" x1="31" y1="62" x2="31"><stop stop-color="#f39e1d" offset="0"/><stop stop-color="#fed05c" offset="1"/></linearGradient></defs><path d="M31 0a31 31 0 1 1 0 62 31 31 0 0 1 0-62zM2.37 30.97a28.6 28.6 0 1 0 57.2 0 28.6 28.6 0 0 0-57.2 0zm41.71-5.93a2.24 2.24 0 0 1-.43 1c-.1.16-.23.3-.37.44l-.64.65-.65.64-.64.65-.65.64-1.08 1.08-1.08 1.08a516.37 516.37 0 0 1-2.16 2.16l-1.03 1.03-1.03 1.04-1.03 1.03-1.03 1.03-.5.5-.49.49-.5.5-.5.49-.02.02a2.29 2.29 0 0 1-1.15.61h-.02l-.02.01-.08.02h-.09l-.06.01a2.27 2.27 0 0 1-.43 0h-.04c-.15-.02-.3-.05-.43-.1h-.02a3.21 3.21 0 0 1-.2-.07v-.01l-.03-.01a2.1 2.1 0 0 1-.39-.22c-.13-.09-.25-.2-.36-.3l-.14-.14-.14-.14-.13-.13-.14-.14-.55-.56-.56-.55-.56-.56-.56-.56a271.58 271.58 0 0 0-1.88-1.87l-.93-.93-.94-.95a2.44 2.44 0 0 1-.68-1.52 2.29 2.29 0 0 1 .63-1.71 2.34 2.34 0 0 1 1.7-.74 2.4 2.4 0 0 1 1.73.77l.1.09.08.09.1.1 1.14 1.13 1.14 1.15 1.14 1.14 1.14 1.14.18-.17.73-.74.74-.74 1.1-1.1a1207.26 1207.26 0 0 0 2.21-2.2l1.1-1.11.99-.98.98-.98.98-.99.99-.98.29-.3.3-.29.29-.29.29-.3.22-.21a6.7 6.7 0 0 1 .45-.4 2.2 2.2 0 0 1 1.38-.4 2.38 2.38 0 0 1 1.86 1.01 2.25 2.25 0 0 1 .38 1.65z" fill="#f39e1d"/><path d="M31 0a31 31 0 1 1 0 62 31 31 0 0 1 0-62zM2.37 30.97a28.6 28.6 0 1 0 57.2 0 28.6 28.6 0 0 0-57.2 0zm41.71-5.93a2.24 2.24 0 0 1-.43 1c-.1.16-.23.3-.37.44l-.64.65-.65.64-.64.65-.65.64-1.08 1.08-1.08 1.08a516.37 516.37 0 0 1-2.16 2.16l-1.03 1.03-1.03 1.04-1.03 1.03-1.03 1.03-.5.5-.49.49-.5.5-.5.49-.02.02a2.29 2.29 0 0 1-1.15.61h-.02l-.02.01-.08.02h-.09l-.06.01a2.27 2.27 0 0 1-.43 0h-.04c-.15-.02-.3-.05-.43-.1h-.02a3.21 3.21 0 0 1-.2-.07v-.01l-.03-.01a2.1 2.1 0 0 1-.39-.22c-.13-.09-.25-.2-.36-.3l-.14-.14-.14-.14-.13-.13-.14-.14-.55-.56-.56-.55-.56-.56-.56-.56a271.58 271.58 0 0 0-1.88-1.87l-.93-.93-.94-.95a2.44 2.44 0 0 1-.68-1.52 2.29 2.29 0 0 1 .63-1.71 2.34 2.34 0 0 1 1.7-.74 2.4 2.4 0 0 1 1.73.77l.1.09.08.09.1.1 1.14 1.13 1.14 1.15 1.14 1.14 1.14 1.14.18-.17.73-.74.74-.74 1.1-1.1a1207.26 1207.26 0 0 0 2.21-2.2l1.1-1.11.99-.98.98-.98.98-.99.99-.98.29-.3.3-.29.29-.29.29-.3.22-.21a6.7 6.7 0 0 1 .45-.4 2.2 2.2 0 0 1 1.38-.4 2.38 2.38 0 0 1 1.86 1.01 2.25 2.25 0 0 1 .38 1.65z" fill="url(#a)"/></svg>