<svg width="66" height="63" xmlns="http://www.w3.org/2000/svg"><defs><linearGradient id="a" gradientUnits="userSpaceOnUse" x1="32.81" y1="62.47" x2="33.19" y2=".53"><stop stop-color="#f39e1d" offset="0"/><stop stop-color="#fed05c" offset="1"/></linearGradient></defs><path d="M65.77 16.1c-.03 1.03-1.03 25.54-16.12 38.59-5.99 5.17-13.37 7.78-22 7.78-1.68 0-3.4-.1-5.17-.3h-.03l-.04.01-.1-.02-.6-.28-.1-.1C18.85 60.16 5.42 51.62 1.35 36.1-1.51 25.25.96 13.52 8.69 1.26l.47-.73.8.36c.71.33 17.09 8 21.04 25.58 7.47-7.57 18.8-11.41 33.77-11.41h1.04zM11.38 3.94c1.43 4.12 4.23 13.1 6.24 25.04a1 1 0 1 1-1.97.33A156.1 156.1 0 0 0 9.32 4.1C2.75 15.22.7 25.8 3.27 35.6c3.37 12.84 13.82 20.84 18.02 23.6-.63-5.39-1.23-19.64 7.8-30.63l.23-.26C26.86 14.6 16.12 6.78 11.38 3.95zm19.27 25.88c-7.85 9.54-7.94 22.06-7.47 27.9a107.29 107.29 0 0 1 12.57-17.64 29.33 29.33 0 0 1-.42-11.6 1 1 0 1 1 1.97.36c-.68 3.75-.27 7.34.1 9.4 9.75-10.54 18.16-15.17 18.3-15.24a1 1 0 0 1 .94 1.76c-.16.09-13.21 7.3-25.53 24.33 2.6.17 8.2-.04 15.1-3.8a1 1 0 1 1 .96 1.76c-6.27 3.41-11.52 4.1-14.73 4.1-1.19 0-2.08-.1-2.66-.18-1.97 2.85-3.9 5.95-5.75 9.33 9.71.81 17.89-1.58 24.3-7.13 12.74-11.01 15.01-31.3 15.38-36.11-15.13.19-26.25 4.48-33.06 12.76z" fill="#f8d138"/><path d="M65.77 16.1c-.03 1.03-1.03 25.54-16.12 38.59-5.99 5.17-13.37 7.78-22 7.78-1.68 0-3.4-.1-5.17-.3h-.03l-.04.01-.1-.02-.6-.28-.1-.1C18.85 60.16 5.42 51.62 1.35 36.1-1.51 25.25.96 13.52 8.69 1.26l.47-.73.8.36c.71.33 17.09 8 21.04 25.58 7.47-7.57 18.8-11.41 33.77-11.41h1.04zM11.38 3.94c1.43 4.12 4.23 13.1 6.24 25.04a1 1 0 1 1-1.97.33A156.1 156.1 0 0 0 9.32 4.1C2.75 15.22.7 25.8 3.27 35.6c3.37 12.84 13.82 20.84 18.02 23.6-.63-5.39-1.23-19.64 7.8-30.63l.23-.26C26.86 14.6 16.12 6.78 11.38 3.95zm19.27 25.88c-7.85 9.54-7.94 22.06-7.47 27.9a107.29 107.29 0 0 1 12.57-17.64 29.33 29.33 0 0 1-.42-11.6 1 1 0 1 1 1.97.36c-.68 3.75-.27 7.34.1 9.4 9.75-10.54 18.16-15.17 18.3-15.24a1 1 0 0 1 .94 1.76c-.16.09-13.21 7.3-25.53 24.33 2.6.17 8.2-.04 15.1-3.8a1 1 0 1 1 .96 1.76c-6.27 3.41-11.52 4.1-14.73 4.1-1.19 0-2.08-.1-2.66-.18-1.97 2.85-3.9 5.95-5.75 9.33 9.71.81 17.89-1.58 24.3-7.13 12.74-11.01 15.01-31.3 15.38-36.11-15.13.19-26.25 4.48-33.06 12.76z" fill="url(#a)"/></svg>