<svg width="66" height="63" xmlns="http://www.w3.org/2000/svg"><defs><linearGradient id="a" gradientUnits="userSpaceOnUse" x1="32.81" y1="63.05" x2="33.46" y2=".57"><stop stop-color="#f39e1d" offset="0"/><stop stop-color="#fed05c" offset="1"/></linearGradient></defs><path d="M5.24 42.41a4.62 4.62 0 0 1-4.62-4.6L.46 5.48A4.62 4.62 0 0 1 5.06.83L61 .57h.02a4.59 4.59 0 0 1 4.62 4.6l.16 32.35a4.62 4.62 0 0 1-4.6 4.64l-11.75.06a1 1 0 0 1 0-2l11.74-.06a2.62 2.62 0 0 0 2.61-2.63l-.16-32.35a2.6 2.6 0 0 0-2.62-2.6h-.01l-55.95.25a2.62 2.62 0 0 0-2.6 2.63l.15 32.35a2.6 2.6 0 0 0 2.63 2.6L17 40.35a1 1 0 0 1 .01 2l-11.75.06h-.02zm27.99 10.1c-.8 0-1.59-.07-2.35-.24l-10.7 10.78-.04-8.65-8.65.04 10.7-10.77a11.23 11.23 0 0 1 3.01-10.42 11.23 11.23 0 0 1 7.98-3.35h.05c3 0 5.83 1.16 7.96 3.27a11.24 11.24 0 0 1 3.1 10.4l10.79 10.7-8.65.03.04 8.65-10.78-10.7c-.78.18-1.59.27-2.4.27h-.06zm-7.96-3.27a11.3 11.3 0 0 1-2.38-3.44l-6.58 6.62 5.82-.03.03 5.82 6.57-6.62a11.3 11.3 0 0 1-3.46-2.35zm16-.07a11.3 11.3 0 0 1-3.45 2.38l6.62 6.58-.02-5.82 5.82-.03-6.62-6.57a11.3 11.3 0 0 1-2.35 3.46zM33.23 31.9h-.04c-2.49 0-4.82.99-6.57 2.75a9.25 9.25 0 0 0-2.7 6.6c.01 2.49 1 4.82 2.76 6.57a9.25 9.25 0 0 0 6.55 2.7h.04a9.25 9.25 0 0 0 6.58-2.76 9.25 9.25 0 0 0 2.7-6.6 9.25 9.25 0 0 0-2.76-6.57 9.25 9.25 0 0 0-6.56-2.7zM19.8 20.56a1 1 0 0 1 0-2l26.92-.12a1 1 0 0 1 0 2l-26.91.12zM15 14.3a1 1 0 0 1 0-2l36.4-.17h.01a1 1 0 0 1 0 2l-36.4.17z" fill="#f8d138"/><path d="M5.24 42.41a4.62 4.62 0 0 1-4.62-4.6L.46 5.48A4.62 4.62 0 0 1 5.06.83L61 .57h.02a4.59 4.59 0 0 1 4.62 4.6l.16 32.35a4.62 4.62 0 0 1-4.6 4.64l-11.75.06a1 1 0 0 1 0-2l11.74-.06a2.62 2.62 0 0 0 2.61-2.63l-.16-32.35a2.6 2.6 0 0 0-2.62-2.6h-.01l-55.95.25a2.62 2.62 0 0 0-2.6 2.63l.15 32.35a2.6 2.6 0 0 0 2.63 2.6L17 40.35a1 1 0 0 1 .01 2l-11.75.06h-.02zm27.99 10.1c-.8 0-1.59-.07-2.35-.24l-10.7 10.78-.04-8.65-8.65.04 10.7-10.77a11.23 11.23 0 0 1 3.01-10.42 11.23 11.23 0 0 1 7.98-3.35h.05c3 0 5.83 1.16 7.96 3.27a11.24 11.24 0 0 1 3.1 10.4l10.79 10.7-8.65.03.04 8.65-10.78-10.7c-.78.18-1.59.27-2.4.27h-.06zm-7.96-3.27a11.3 11.3 0 0 1-2.38-3.44l-6.58 6.62 5.82-.03.03 5.82 6.57-6.62a11.3 11.3 0 0 1-3.46-2.35zm16-.07a11.3 11.3 0 0 1-3.45 2.38l6.62 6.58-.02-5.82 5.82-.03-6.62-6.57a11.3 11.3 0 0 1-2.35 3.46zM33.23 31.9h-.04c-2.49 0-4.82.99-6.57 2.75a9.25 9.25 0 0 0-2.7 6.6c.01 2.49 1 4.82 2.76 6.57a9.25 9.25 0 0 0 6.55 2.7h.04a9.25 9.25 0 0 0 6.58-2.76 9.25 9.25 0 0 0 2.7-6.6 9.25 9.25 0 0 0-2.76-6.57 9.25 9.25 0 0 0-6.56-2.7zM19.8 20.56a1 1 0 0 1 0-2l26.92-.12a1 1 0 0 1 0 2l-26.91.12zM15 14.3a1 1 0 0 1 0-2l36.4-.17h.01a1 1 0 0 1 0 2l-36.4.17z" fill="url(#a)"/></svg>