<svg xmlns="http://www.w3.org/2000/svg" viewbox="0 0 91 43" width="91" height="43"><path fill="#ffc314" d="M7.74 15.11V25.6a3.3 3.3 0 0 1-3.3 3.3H.74V11.93h3.7c1.88 0 3.3 1.37 3.3 3.17zM2.5 27.13h1.93c.84 0 1.53-.69 1.53-1.53V15.1c0-.8-.66-1.4-1.53-1.4H2.51zm26.56-4.65v6.41h-1.76v-6.41c0-.8-.78-1.27-1.39-1.54h-2.07v7.95h-1.76V11.94h4.04a2.8 2.8 0 0 1 2.8 2.81v2.91a3 3 0 0 1-1.16 2.37 3 3 0 0 1 1.3 2.45zm-5.22-3.31h2.1c.55-.26 1.2-.73 1.2-1.47v-2.95c0-.5-.42-1.06-1.02-1.06h-2.28zm12.9.42l4.2 9.3h-1.93l-3.8-8.44h-.9v8.44h-1.75V11.94h1.75v6.76h.92l3.8-6.76H41zM16.3 12.82l2.96 16.07h-1.78l-.06-.3-2.7-14.57-2.7 14.87h-1.78l2.9-16.07c.09-.48.6-1 1.24-1h.68c.59 0 1.15.45 1.24 1zm35.24 7.04a22.51 22.51 0 0 1-27.2 22.03c.36.01.7.03 1.06.03A23.36 23.36 0 0 0 39.54-.05a22.5 22.5 0 0 1 12 19.91zm10 9.13h-.32a3.2 3.2 0 0 1-3.2-3.19v-3.27h1.57v3.27c0 .9.73 1.63 1.63 1.63h.32c.9 0 1.63-.73 1.63-1.63v-1.56c0-2.26-1.25-3.2-2.88-4.17-1.57-.93-2.26-2.12-2.26-3.85v-1.1a3.2 3.2 0 0 1 3.19-3.2h.32a3.2 3.2 0 0 1 3.2 3.2v.27h-1.57v-.28c0-.9-.73-1.62-1.63-1.62h-.32c-.9 0-1.63.73-1.63 1.62v1.12c0 1.3.94 2.12 2.44 3.04 1.4.85 2.7 2.04 2.7 4.97v1.56a3.2 3.2 0 0 1-3.19 3.2zm8.66-16.95v16.75h-1.56V12.04zm8 16.75h-3.6V12.04h3.6c1.82 0 3.2 1.32 3.2 3.07V25.6a3.2 3.2 0 0 1-3.2 3.2zm1.63-3.2V15.12c0-.86-.7-1.5-1.63-1.5h-2.03v13.61h2.03c.9 0 1.63-.72 1.63-1.62zm5.57-13.55h5.57v1.57h-4v5.2h3.46v1.56h-3.47v6.85h4.01v1.57h-5.57z"/></svg>