<svg xmlns="http://www.w3.org/2000/svg" viewbox="0 0 293.09 65.8" width="293.09" height="65.8"><path data-name="Areko Logo" d="M286.58 21.7c-4.86-5.1-12.19-7.8-21.2-8h-.59c-7.64 0-14.25 2.6-19.14 7.6a26 26 0 0 0-7.26 18.6c.54 23.8 20.68 25.9 26.84 25.9h.29c7.6 0 14.5-2.5 19.46-7.1 5.3-4.9 8.1-11.8 8.1-19.9a24.23 24.23 0 0 0-6.5-17.1zM265.68 63c-12.4-.3-19.8-8.8-19.8-22.8 0-7.7 2.48-14.6 6.8-18.8a17.81 17.81 0 0 1 12.92-5h.5c5.85.2 10.74 2.3 14.13 6 3.87 4.2 5.73 10.4 5.37 18.1-.48 12.9-8.92 22.5-19.68 22.5h-.25zm-42.52-17.8c-2.37-2.6-4.82-5.4-7.2-8.1 5.84-5.8 9.62-9.5 12.96-12.7 3.15-3 5.86-5.6 9.58-9.3a.2.2 0 0 0 .04-.2.25.25 0 0 0-.17-.2 15.01 15.01 0 0 0-1.98.2 3.16 3.16 0 0 1-1 .1 17.22 17.22 0 0 0-2.7-.3.97.97 0 0 0-.13.1l-17 17.5-.25.3c-1.4 1.4-4.7 4.9-5.81 4.9h-.02a.1.1 0 0 1-.14-.1V14.9a.14.14 0 0 0-.06-.1 1.38 1.38 0 0 0-.14-.1c-.63.1-1.19.1-1.68.2-.64 0-1.19.1-1.72.1a3.25 3.25 0 0 1-1.01-.1 13.66 13.66 0 0 0-1.96-.2.2.2 0 0 0-.2.2v49.9a.14.14 0 0 0 .07.1c.04 0 .1.1.15.1.53-.1 1.01-.1 1.48-.2.58 0 1.13-.1 1.62-.1.63 0 1.17.1 1.69.1.51.1 1 .1 1.55.2.05 0 .11-.1.15-.1a.14.14 0 0 0 .06-.1V39.4h.1c.63 0 1.25.7 1.86 1.5l.26.3c1.77 2.2 3.88 4.6 6.12 7.2 4.77 5.5 10.17 11.7 13.26 16.5a.74.74 0 0 0 .15.1c.33 0 1.36-.1 2.78-.2l1.49-.1c.68 0 1.36.1 2.01.1.6.1 1.22.1 1.84.2h.02a1.24 1.24 0 0 0 .12-.1.14.14 0 0 0 .06-.1v-.5a.17.17 0 0 0-.03-.1c-5.15-6.7-10.78-13-16.23-19zm-74.08 4.4c-2.52-3.2-5.12-6.5-7.7-9.7 6.94-1.1 14.88-5.3 14.88-13.9 0-7.7-5.05-11.3-15.88-11.3h-15.92a.2.2 0 0 0-.18.2v49.9a.14.14 0 0 0 .06.1 1.44 1.44 0 0 0 .15.1c.5-.1 1-.1 1.48-.2.56 0 1.08-.1 1.62-.1.57 0 1.12.1 1.69.1.5.1 1.01.1 1.55.2h.03a1.2 1.2 0 0 0 .12-.1.14.14 0 0 0 .06-.1V40.5h2.56c6.39 7.2 15.28 19.5 18.82 24.4a1.06 1.06 0 0 0 .18.1c.51-.1 1.06-.1 1.59-.2.58 0 1.18-.1 1.7-.1.95 0 1.77.1 2.64.1.74.1 1.51.1 2.38.2a.7.7 0 0 0 .18-.1c.04-.1.03-.2-.02-.2-4.03-5-8.09-10.1-12-15.1zm-18.03-31.8h2.44c1.03 0 2.12-.1 3.19-.1 3.83 0 12.74.9 12.74 9.3a9.63 9.63 0 0 1-3.07 7.1c-3.1 2.8-8.24 4-15.3 3.4V17.8zm62.54 44.3c.08-.4.11-.7.15-1s.07-.6.14-1a.19.19 0 0 0-.06-.2c-.04 0-.1-.1-.16 0-3.65.6-12.64.9-17.46 1.1h-.63a10.13 10.13 0 0 0-1.52-.1V40h11.12l6.4.4a.13.13 0 0 0 .15-.1.1.1 0 0 0 .04-.1c-.06-.4-.1-.7-.12-1a9.1 9.1 0 0 0-.16-1 8.23 8.23 0 0 0 .14-.9 6.8 6.8 0 0 1 .14-1 .2.2 0 0 0-.04-.2.13.13 0 0 0-.15-.1c-.7.1-1.44.1-2.18.2-1.52.1-3.09.3-4.2.3h-11.15v-18h6.2a66.82 66.82 0 0 1 12.96 1c.06.1.13 0 .17 0a.18.18 0 0 0 .06-.2c-.06-.3-.1-.6-.13-.9a6.42 6.42 0 0 0-.16-1c.08-.5.11-.8.15-1.2s.07-.8.14-1.2a.35.35 0 0 0-.05-.2.9.9 0 0 0-.14-.1h-25.78a.2.2 0 0 0-.18.2v49.6a.2.2 0 0 0 .18.2h26.22a.9.9 0 0 0 .14-.1.21.21 0 0 0 .05-.2c-.06-.4-.1-.8-.12-1.1a7.25 7.25 0 0 0-.17-1.2zM96.7 13.8a.14.14 0 0 0-.18-.1h-1.74a.14.14 0 0 0-.17.1L71.93 64.7a.2.2 0 0 0 .03.2 1.24 1.24 0 0 0 .19.1 4.1 4.1 0 0 1 1.19-.2c.39 0 .84-.1 1.3-.1s.95.1 1.4.1c.43.1.85.1 1.26.2h.04a.24.24 0 0 0 .18-.2 148.46 148.46 0 0 1 5.4-15c.61-1.6 1.22-3.1 1.8-4.6h18.13c2.86 6.5 5.5 13.3 7.64 19.6a.25.25 0 0 0 .2.2c.55-.1 1.1-.1 1.63-.2.58 0 1.18-.1 1.75-.1h.34c1.53.1 2.86.3 3.89.3a.73.73 0 0 0 .15-.1.24.24 0 0 0 .02-.2zm4.9 28H86.27l7.5-17.8zM.02 64.6h64.57V0H0v64.6zm43.88-54v23.1H20.75V10.6h23.13zM4.1 4.1h9.56v36.8H51V4.1h9.5v56.4H4.08V4.1z" fill="#fff" fill-rule="evenodd"/></svg>