<svg viewbox="0 0 1323 280" width="1323" height="280" xmlns="http://www.w3.org/2000/svg"><path d="M263.5 138.9c0 72.6-59.6 130-131.5 130S.6 211.6.6 139a131.6 131.6 0 0 1 262.9 0zm-234.8-.4C28.7 195.4 74.8 243 132 243s103.4-47.5 103.4-104.4c0-57.2-45.5-104.3-103.4-104.3A103.6 103.6 0 0 0 28.7 138.5zM350 204.8L422 12.4h30.4L350.1 279.7 247.7 12.4h30.5L350 204.8zm352.6-66c0 72.7-59.5 130.2-131.5 130.2s-131.4-57.5-131.4-130.1a131.6 131.6 0 0 1 263 0zm-234.8-.3c0 56.9 46.1 104.4 103.3 104.4s103.4-47.5 103.4-104.4c0-57.2-45.5-104.3-103.4-104.3A103.6 103.6 0 0 0 468 138.5zm363-76.9c-10-17.4-22-27.4-43.4-27.4-22.5 0-41.9 16-41.9 39.1 0 21.8 22.5 31.8 39.5 39.5l16.7 7.3c32.8 14.4 60.6 30.8 60.6 71 0 44.1-35.5 77.9-79.3 77.9-40.5 0-70.6-26-78.6-65.2l27.4-7.7c3.7 25.7 23.4 46.8 50.5 46.8s51.9-20.7 51.9-49.2c0-29.4-23.1-39.4-46.5-50.1l-15.4-6.7c-29.4-13.4-54.9-28.5-54.9-64.6 0-39.1 33.2-64.2 70.6-64.2a72.4 72.4 0 0 1 65.3 39.1l-22.5 14.4zm86.2 131.5l-30.4 71.6h-30.8L972.3.4l113.4 264.3h-31l-29.9-71.6H917.1zm54.6-127.2l-43.2 101h85.3L971.7 66zm125.7-64.2l196.7 206V12.5h28V276L1125.6 70.3v194.4h-28.1V1.6z" fill="#007c66"/></svg>